<mxfile host="app.diagrams.net" modified="2022-04-07T03:10:46.877Z" agent="5.0 (Windows NT 10.0; Win64; x64) AppleWebKit/537.36 (KHTML, like Gecko) Chrome/97.0.4692.99 Safari/537.36" etag="phMbzdtzSTlESUMlaYQN" version="17.4.0" type="github">
  <diagram id="m1hJWEKIUiIPNmOxuzZK" name="第 1 页">
    <mxGraphModel dx="1038" dy="591" grid="1" gridSize="10" guides="1" tooltips="1" connect="1" arrows="1" fold="1" page="1" pageScale="1" pageWidth="827" pageHeight="1169" math="0" shadow="0">
      <root>
        <mxCell id="0" />
        <mxCell id="1" parent="0" />
        <mxCell id="Gr5L5JMq0tkzET4MIltc-3" value="" style="rounded=0;whiteSpace=wrap;html=1;labelBackgroundColor=#FFFFCC;fontFamily=Courier New;fontSize=31;fontColor=none;fillColor=#FFF2CC;gradientColor=none;labelBorderColor=#FFFFCC;strokeColor=#FFFFCC;" vertex="1" parent="1">
          <mxGeometry x="190" y="110" width="409" height="200" as="geometry" />
        </mxCell>
        <mxCell id="Gr5L5JMq0tkzET4MIltc-1" value="&lt;font style=&quot;font-size: 31px&quot;&gt;model engine&lt;br&gt;&lt;/font&gt;&lt;span style=&quot;font-weight: normal&quot;&gt;&lt;font color=&quot;#ff3333&quot; size=&quot;1&quot;&gt;&lt;sup style=&quot;font-size: 16px&quot;&gt;模型引擎制作&lt;/sup&gt;&lt;/font&gt;&lt;/span&gt;" style="text;strokeColor=none;fillColor=none;html=1;fontSize=29;fontStyle=1;verticalAlign=middle;align=center;fontFamily=Courier New;labelBackgroundColor=none;" vertex="1" parent="1">
          <mxGeometry x="234.5" y="150" width="320" height="130" as="geometry" />
        </mxCell>
      </root>
    </mxGraphModel>
  </diagram>
</mxfile>
